<svg xmlns="http://www.w3.org/2000/svg"  viewBox="0 0 50 50" width="50px" height="50px"><path d="M 4 4 C 2.346 4 1 5.346 1 7 L 1 30 C 1 31.523 2.1451875 32.770937 3.6171875 32.960938 C 1.7361875 34.521937 0.55664062 36.885172 0.55664062 39.576172 C 0.55664062 45.469172 5.0008594 48.154297 9.1308594 48.154297 C 11.577859 48.154297 13.503563 47.467281 14.851562 46.113281 C 15.124562 45.839281 15.325406 45.500812 15.441406 45.132812 C 16.769406 46.597813 18.683594 47.517578 20.808594 47.517578 C 24.808594 47.517578 28.0625 44.255141 28.0625 40.244141 L 28.0625 38.65625 L 28.597656 39.462891 L 28.597656 44.4375 C 28.597656 46.0525 29.910438 47.367187 31.523438 47.367188 L 33.376953 47.367188 C 34.547953 47.367188 35.560344 46.674734 36.027344 45.677734 C 36.330344 46.091734 36.76225 46.410219 37.28125 46.574219 C 37.39025 46.608219 37.507766 46.650313 37.634766 46.695312 C 38.411766 46.971313 39.583109 47.388672 41.287109 47.388672 C 43.170109 47.388672 44.725203 46.93225 45.908203 46.03125 C 47.274203 44.99825 47.998047 43.519813 47.998047 41.757812 C 47.998047 40.492812 47.603516 39.337016 46.853516 38.416016 C 46.739516 38.276016 46.614469 38.139859 46.480469 38.005859 C 46.673469 37.802859 46.833219 37.565781 46.949219 37.300781 L 47.734375 35.509766 C 48.002375 34.896766 48.006141 34.191219 47.744141 33.574219 C 47.649141 33.349219 47.511469 33.149844 47.355469 32.964844 C 48.840469 32.785844 50 31.532 50 30 L 50 27 C 50 25.346 48.654 24 47 24 L 46 24 L 46 7 C 46 5.346 44.654 4 43 4 L 40 4 C 38.346 4 37 5.346 37 7 L 37 24.185547 C 36.686 24.072547 36.353 24 36 24 L 36 7 C 36 5.346 34.654 4 33 4 L 30 4 C 28.346 4 27 5.346 27 7 L 27 20.570312 L 24.923828 6.5605469 C 24.707828 5.1015469 23.432031 4 21.957031 4 L 17.199219 4 C 16.102219 4 15.118703 4.6104844 14.595703 5.5214844 C 14.077703 4.6174844 13.114 4 12 4 L 4 4 z M 4 6 L 12 6 C 12.552 6 13 6.448 13 7 L 13 11 C 13 11.552 12.552 12 12 12 L 9 12 C 8.448 12 8 12.448 8 13 L 8 14 C 8 14.552 8.448 15 9 15 L 11 15 C 11.552 15 12 15.448 12 16 L 12 19 C 12 19.552 11.552 20 11 20 L 9 20 C 8.448 20 8 20.448 8 21 L 8 30 C 8 30.552 7.552 31 7 31 L 4 31 C 3.448 31 3 30.552 3 30 L 3 7 C 3 6.448 3.448 6 4 6 z M 17.199219 6 L 21.957031 6 C 22.452031 6 22.872313 6.3635156 22.945312 6.8535156 L 26.353516 29.853516 C 26.442516 30.457516 25.975234 31 25.365234 31 L 22.712891 31 C 22.235891 31 21.825422 30.663313 21.732422 30.195312 L 21.128906 27.173828 C 21.034906 26.706828 20.624437 26.369141 20.148438 26.369141 L 19.009766 26.369141 C 18.532766 26.369141 18.122297 26.705828 18.029297 27.173828 L 17.423828 30.195312 C 17.329828 30.663312 16.919359 31 16.443359 31 L 13.789062 31 C 13.179063 31 12.711781 30.457516 12.800781 29.853516 L 16.210938 6.8535156 C 16.282937 6.3635156 16.703219 6 17.199219 6 z M 30 6 L 33 6 C 33.552 6 34 6.448 34 7 L 34 25 C 34 25.552 34.448 26 35 26 L 36 26 C 36.552 26 37 26.448 37 27 L 37 30 C 37 30.552 36.552 31 36 31 L 30 31 C 29.448 31 29 30.552 29 30 L 29 7 C 29 6.448 29.448 6 30 6 z M 40 6 L 43 6 C 43.552 6 44 6.448 44 7 L 44 25 C 44 25.552 44.448 26 45 26 L 47 26 C 47.552 26 48 26.448 48 27 L 48 30 C 48 30.552 47.552 31 47 31 L 40 31 C 39.448 31 39 30.552 39 30 L 39 27 L 39 7 C 39 6.448 39.448 6 40 6 z M 19.509766 14.001953 C 18.206535 14.02618 16.976516 14.602313 16.134766 15.601562 C 15.173766 16.743562 14.842953 18.293047 15.251953 19.748047 C 15.741953 21.494047 17.280984 22.791562 19.083984 22.976562 C 19.241984 22.992562 19.398688 23 19.554688 23 C 20.888687 23 22.158531 22.420438 23.019531 21.398438 C 23.979531 20.257437 24.310297 18.709859 23.904297 17.255859 C 23.415297 15.508859 21.874313 14.210391 20.070312 14.025391 C 19.882062 14.005891 19.695941 13.998492 19.509766 14.001953 z M 19.587891 15.998047 C 19.679891 15.998047 19.772234 16.004672 19.865234 16.013672 C 20.845234 16.115672 21.713516 16.846922 21.978516 17.794922 C 22.109516 18.263922 22.096656 18.733828 21.972656 19.173828 L 21.9375 18.742188 C 21.9005 18.297187 21.510406 17.965953 21.066406 18.001953 C 20.622406 18.038953 20.291125 18.431953 20.328125 18.876953 L 20.388672 19.609375 C 20.424672 20.045375 20.802375 20.369656 21.234375 20.347656 C 20.708375 20.820656 20.021109 21.059328 19.287109 20.986328 C 18.887109 20.945328 18.509688 20.793359 18.179688 20.568359 C 18.527687 20.454359 18.772234 20.128094 18.740234 19.746094 L 18.679688 19.011719 C 18.642688 18.566719 18.252594 18.235484 17.808594 18.271484 C 17.480594 18.299484 17.216234 18.522406 17.115234 18.816406 C 17.026234 18.118406 17.207063 17.431672 17.664062 16.888672 C 18.147063 16.314672 18.837891 15.998047 19.587891 15.998047 z M 11.96875 21.824219 L 10.822266 29.560547 C 10.738266 30.128547 10.8355 30.694031 11.0625 31.207031 C 10.6565 31.125031 10.236734 31.069969 9.8027344 31.042969 C 9.9247344 30.716969 10 30.368 10 30 L 10 22 L 11 22 C 11.341 22 11.66275 21.930219 11.96875 21.824219 z M 9.1308594 33 C 10.875859 33 12.210125 33.503719 13.328125 34.386719 C 13.527125 34.543719 13.562875 34.835875 13.421875 35.046875 L 12.494141 36.441406 C 12.401141 36.581406 12.249797 36.654297 12.091797 36.654297 C 12.006797 36.654297 11.919844 36.633844 11.839844 36.589844 C 10.942844 36.095844 10.065484 35.863281 9.2714844 35.863281 C 7.3344844 35.863281 5.8984375 37.246172 5.8984375 39.576172 C 5.8984375 41.093172 7.0839062 43.117188 9.1289062 43.117188 C 9.9649063 43.117188 10.318781 43.056906 10.800781 42.753906 L 10.800781 41.09375 C 10.800781 41.09375 10.379922 41.076172 9.9199219 41.076172 C 9.7939219 41.076172 9.6630625 41.076078 9.5390625 41.080078 L 9.5292969 41.080078 C 9.3082969 41.080078 9.1289062 40.898781 9.1289062 40.675781 L 9.1289062 38.960938 C 9.1289062 38.742937 9.3044844 38.564453 9.5214844 38.564453 L 13.158203 38.564453 C 13.375203 38.564453 13.552734 38.742938 13.552734 38.960938 L 13.552734 44.400391 L 13.556641 44.400391 C 13.556641 44.513391 13.512594 44.624125 13.433594 44.703125 C 12.452594 45.688125 11.017859 46.154297 9.1308594 46.154297 C 5.8758594 46.154297 2.5566406 44.129172 2.5566406 39.576172 C 2.5566406 35.943172 5.2988594 33 9.1308594 33 z M 16.023438 33.28125 L 18.464844 33.28125 C 18.723844 33.28125 18.933594 33.491953 18.933594 33.751953 L 18.933594 39.871094 C 18.933594 40.911094 19.772594 41.753906 20.808594 41.753906 C 21.844594 41.753906 22.683594 40.911094 22.683594 39.871094 L 22.683594 33.751953 C 22.683594 33.491953 22.893344 33.28125 23.152344 33.28125 L 25.59375 33.28125 C 25.85275 33.28125 26.0625 33.491953 26.0625 33.751953 L 26.0625 40.244141 C 26.0625 43.157141 23.709594 45.517578 20.808594 45.517578 C 17.907594 45.517578 15.554687 43.156141 15.554688 40.244141 L 15.554688 33.751953 C 15.554688 33.491953 15.764438 33.28125 16.023438 33.28125 z M 27.759766 33.28125 L 30.349609 33.28125 C 30.504609 33.28125 30.648375 33.359281 30.734375 33.488281 L 32.449219 36.070312 L 34.164062 33.488281 C 34.249063 33.359281 34.395781 33.28125 34.550781 33.28125 L 37.140625 33.28125 C 37.510625 33.28125 37.731391 33.695906 37.525391 34.003906 L 34.302734 38.859375 L 34.302734 44.4375 C 34.302734 44.9505 33.887953 45.367188 33.376953 45.367188 L 31.525391 45.367188 C 31.014391 45.367188 30.599609 44.9505 30.599609 44.4375 L 30.599609 38.859375 L 27.373047 34.003906 C 27.168047 33.694906 27.390766 33.28125 27.759766 33.28125 z M 42.056641 33.287109 C 42.689641 33.287109 43.302813 33.361906 43.882812 33.503906 C 44.251812 33.594906 45.096906 33.900656 45.628906 34.097656 C 45.884906 34.192656 46.006391 34.467984 45.900391 34.708984 L 45.119141 36.496094 C 45.041141 36.674094 44.859969 36.783203 44.667969 36.783203 C 44.610969 36.783203 44.551141 36.773906 44.494141 36.753906 C 44.013141 36.579906 43.280156 36.319719 43.035156 36.261719 C 42.698156 36.182719 42.344203 36.134766 42.033203 36.134766 C 41.692203 36.134766 41.403234 36.191219 41.240234 36.324219 C 41.102234 36.438219 41.039062 36.577531 41.039062 36.769531 C 41.039062 36.885531 41.063281 36.977734 41.113281 37.052734 C 41.179281 37.151734 41.291172 37.252469 41.451172 37.355469 C 41.584172 37.442469 41.946828 37.640031 42.923828 38.082031 C 44.072828 38.604031 44.851781 39.125687 45.300781 39.679688 C 45.766781 40.247688 46 40.945859 46 41.755859 C 46 42.881859 45.563219 43.785453 44.699219 44.439453 C 43.872219 45.068453 42.724062 45.388672 41.289062 45.388672 C 39.631062 45.388672 38.598719 44.891969 37.886719 44.667969 C 37.686719 44.604969 37.554688 44.426562 37.554688 44.226562 L 37.554688 42.109375 C 37.554688 41.842375 37.783969 41.644531 38.042969 41.644531 C 38.103969 41.644531 38.168469 41.654687 38.230469 41.679688 C 38.881469 41.934688 39.815812 42.291094 40.132812 42.371094 C 40.623812 42.493094 41.086562 42.554688 41.476562 42.554688 C 41.888562 42.554688 42.219016 42.486516 42.416016 42.353516 C 42.520016 42.281516 42.638672 42.162141 42.638672 41.869141 C 42.638672 41.754141 42.608969 41.659312 42.542969 41.570312 C 42.452969 41.452312 42.310187 41.330984 42.117188 41.208984 C 41.899187 41.069984 41.420359 40.833859 40.693359 40.505859 C 39.948359 40.173859 39.397766 39.856063 39.009766 39.539062 C 38.613766 39.212063 38.293594 38.827484 38.058594 38.396484 C 37.813594 37.949484 37.6875 37.42775 37.6875 36.84375 C 37.6875 35.74375 38.093578 34.862656 38.892578 34.222656 C 39.666578 33.601656 40.731641 33.287109 42.056641 33.287109 z"/></svg>