<?xml version="1.0" standalone="no"?>
<!DOCTYPE svg PUBLIC "-//W3C//DTD SVG 20010904//EN"
 "http://www.w3.org/TR/2001/REC-SVG-20010904/DTD/svg10.dtd">
<svg version="1.0" xmlns="http://www.w3.org/2000/svg"
 width="1080.000000pt" height="1080.000000pt" viewBox="0 0 1080.000000 1080.000000"
 preserveAspectRatio="xMidYMid meet">

<g transform="translate(0.000000,1080.000000) scale(0.100000,-0.100000)"
fill="#000000" stroke="none">
<path d="M4578 7643 c28 -2 76 -2 105 0 28 2 5 3 -53 3 -58 0 -81 -1 -52 -3z"/>
<path d="M4138 7623 c6 -2 18 -2 25 0 6 3 1 5 -13 5 -14 0 -19 -2 -12 -5z"/>
<path d="M6830 7594 c0 -14 4 -23 10 -19 6 3 10 15 10 26 0 10 -4 19 -10 19
-5 0 -10 -12 -10 -26z"/>
<path d="M4305 7534 c-192 -12 -402 -39 -497 -63 l-107 -28 -3 31 -3 31 -560
0 -560 0 -73 -215 c-41 -118 -208 -615 -372 -1105 -165 -489 -380 -1132 -479
-1428 -100 -295 -181 -544 -181 -551 0 -24 213 -247 331 -347 144 -122 321
-249 489 -349 155 -93 441 -237 485 -246 l30 -6 38 144 c21 79 115 453 209
832 l171 689 196 -6 c278 -9 810 -55 1186 -102 264 -34 617 -102 895 -174 934
-240 1754 -683 2327 -1258 67 -68 127 -123 134 -123 29 0 482 291 696 447 183
133 387 312 480 422 49 58 55 68 50 101 -2 19 -14 56 -25 80 -22 50 -419 1197
-517 1495 -35 105 -101 300 -148 435 -81 233 -377 1090 -419 1213 l-20 57
-564 0 -564 0 0 -33 0 -33 -131 22 c-284 48 -630 63 -1639 68 -437 2 -822 2
-855 0z m2220 -259 c189 -25 309 -53 465 -105 80 -27 153 -51 162 -55 14 -6
18 3 24 64 l7 71 357 0 358 0 461 -1384 c253 -761 461 -1393 461 -1404 0 -11
7 -39 16 -63 l15 -44 -48 -43 c-75 -68 -297 -211 -382 -247 -42 -18 -100 -44
-128 -59 -65 -32 -182 -79 -250 -99 l-52 -16 -103 85 c-192 159 -402 291 -693
437 -308 155 -715 299 -1160 410 -248 63 -309 76 -680 147 -311 59 -833 127
-1220 160 -66 5 -133 12 -150 15 -16 3 -140 9 -275 15 -135 5 -262 13 -282 16
-43 7 -51 24 -12 24 14 0 125 13 247 30 261 35 562 63 917 86 360 24 1170 24
1475 1 617 -48 1044 -125 1455 -261 115 -39 136 -43 139 -29 6 29 -53 298 -70
319 -5 6 -35 14 -67 18 -105 12 -544 45 -807 60 -354 22 -473 33 -582 57 -394
85 -637 284 -700 574 -16 69 -18 137 -18 500 l0 420 26 55 c70 147 228 226
529 264 74 9 450 -3 565 -19z m-1823 -10 c287 -43 441 -161 505 -385 15 -56
18 -104 18 -340 0 -299 -11 -420 -51 -558 -82 -283 -245 -416 -597 -487 -144
-29 -318 -47 -707 -75 -157 -12 -366 -28 -465 -36 -99 -8 -215 -18 -257 -21
-43 -3 -82 -11 -86 -17 -5 -6 -39 -130 -75 -276 -67 -265 -204 -801 -312
-1217 l-58 -221 -36 16 c-198 92 -544 334 -713 499 l-106 105 18 56 c128 395
187 576 275 842 139 423 537 1634 621 1893 l68 207 352 0 352 0 7 -42 c10 -71
16 -98 21 -98 3 0 53 16 111 35 116 39 395 98 543 114 52 6 109 13 125 15 85
9 360 4 447 -9z"/>
<path d="M6389 6870 c-126 -22 -138 -67 -94 -352 14 -90 32 -207 40 -261 16
-107 37 -165 78 -213 46 -55 82 -65 265 -74 92 -5 294 -17 450 -26 166 -10
287 -13 292 -8 13 13 -9 109 -105 454 -46 168 -89 328 -95 356 l-11 51 -122
17 c-389 51 -622 70 -698 56z"/>
<path d="M4000 6871 c-30 -5 -131 -18 -225 -30 -93 -12 -209 -26 -257 -32
l-86 -12 -18 -71 c-9 -39 -43 -164 -75 -279 -76 -269 -129 -473 -129 -498 0
-23 -12 -23 385 2 88 5 241 14 340 18 204 10 232 17 287 79 47 52 64 108 89
292 10 80 28 207 40 282 20 131 20 139 3 174 -26 54 -83 76 -204 80 -52 1
-120 -1 -150 -5z"/>
<path d="M2376 7265 c-3 -9 -6 -22 -5 -28 0 -7 5 -1 10 12 5 13 8 26 5 28 -2
2 -6 -3 -10 -12z"/>
<path d="M2356 7205 c-3 -9 -6 -22 -5 -28 0 -7 5 -1 10 12 5 13 8 26 5 28 -2
2 -6 -3 -10 -12z"/>
<path d="M2181 6674 c0 -11 3 -14 6 -6 3 7 2 16 -1 19 -3 4 -6 -2 -5 -13z"/>
<path d="M2056 6304 c-9 -26 -16 -52 -15 -58 0 -6 9 13 20 43 10 30 17 56 15
58 -2 2 -11 -17 -20 -43z"/>
<path d="M1776 5475 c-9 -26 -7 -32 5 -12 6 10 9 21 6 23 -2 3 -7 -2 -11 -11z"/>
<path d="M1686 5205 c-3 -9 -6 -22 -5 -28 0 -7 5 -1 10 12 5 13 8 26 5 28 -2
2 -6 -3 -10 -12z"/>
<path d="M1646 5084 c-14 -43 -24 -79 -22 -81 2 -2 16 31 30 73 14 43 24 79
22 81 -2 2 -16 -31 -30 -73z"/>
<path d="M7420 3616 c0 -2 8 -10 18 -17 15 -13 16 -12 3 4 -13 16 -21 21 -21
13z"/>
<path d="M7470 3576 c0 -2 8 -10 18 -17 15 -13 16 -12 3 4 -13 16 -21 21 -21
13z"/>
<path d="M7540 3515 c13 -14 26 -25 28 -25 3 0 -5 11 -18 25 -13 14 -26 25
-28 25 -3 0 5 -11 18 -25z"/>
<path d="M7650 3418 c24 -27 45 -48 47 -48 8 0 0 9 -44 50 l-48 45 45 -47z"/>
<path d="M7778 3294 c39 -45 80 -88 89 -95 30 -24 -62 83 -113 131 -34 32 -27
22 24 -36z"/>
</g>
</svg>
